<mxfile host="app.diagrams.net" agent="Mozilla/5.0 (Windows NT 10.0; Win64; x64) AppleWebKit/537.36 (KHTML, like Gecko) Chrome/131.0.0.0 Safari/537.36" version="26.0.2">
  <diagram name="Page-1" id="QIYhUOBuRmmIrT_QKTTR">
    <mxGraphModel dx="-15696" dy="-422" grid="1" gridSize="10" guides="1" tooltips="1" connect="1" arrows="1" fold="1" page="1" pageScale="1" pageWidth="850" pageHeight="1100" math="0" shadow="0">
      <root>
        <mxCell id="0" />
        <mxCell id="1" parent="0" />
        <mxCell id="urwxPss4SStaSpPDpani-52" value="8) Cursada 2022 - 1ra fecha - 08/11/2022&lt;div&gt;&lt;br&gt;&lt;/div&gt;&lt;div&gt;&lt;span style=&quot;font-weight: normal;&quot;&gt;SOCIO = ( nro_socio, DNI, Apellido, Nombre, Fecha_Nacimiento, Fecha_Ingreso )&lt;/span&gt;&lt;/div&gt;&lt;div&gt;&lt;span style=&quot;font-weight: normal;&quot;&gt;LIBRO = ( ISBN, Titulo, Cod_Genero, Descripcion )&lt;/span&gt;&lt;/div&gt;&lt;div&gt;&lt;span style=&quot;font-weight: normal;&quot;&gt;COPIA = ( ISBN(PK), Nro_Ejemplar , Estado )&lt;/span&gt;&lt;/div&gt;&lt;div&gt;&lt;span style=&quot;font-weight: normal;&quot;&gt;EDITORIAL = ( Cod_Editorial, Denominacion, Telefono, Calle, Numero, Piso, Dpto )&lt;/span&gt;&lt;/div&gt;&lt;div&gt;&lt;span style=&quot;font-weight: normal;&quot;&gt;LIBRO-EDITORIAL = ( ISBN(FK). Cod_Editorial(PK), Año_Edicion )&lt;/span&gt;&lt;/div&gt;&lt;div&gt;&lt;span style=&quot;font-weight: normal;&quot;&gt;GENERO = ( Cod_Genero, Nombre_genero )&lt;/span&gt;&lt;/div&gt;&lt;div&gt;&lt;span style=&quot;font-weight: normal;&quot;&gt;PRESTAMO = ( Nro_Prestamo, nro_Socio(FK), ISBN (FK), Nro_Ejemplar(FK), Fecha_Prestamo, Fecha_Devolucion )&amp;nbsp; // ISBN(FK) y Nro_Ejemplar son foraneas de copia&lt;/span&gt;&lt;/div&gt;&lt;div&gt;&lt;span style=&quot;font-weight: normal;&quot;&gt;&lt;br&gt;&lt;/span&gt;&lt;/div&gt;&lt;div&gt;Realizar 6-7-8 en AR&lt;span style=&quot;font-weight: normal;&quot;&gt; y 1-2-3-4-5 en SQL&amp;nbsp;&amp;nbsp;&lt;/span&gt;&lt;/div&gt;" style="text;whiteSpace=wrap;html=1;fontStyle=1;fillColor=#f5f5f5;strokeColor=#666666;fontColor=#333333;align=left;fontFamily=Comic Sans MS;" vertex="1" parent="1">
          <mxGeometry x="17120" y="1160" width="1200" height="190" as="geometry" />
        </mxCell>
        <mxCell id="urwxPss4SStaSpPDpani-53" value="&lt;b&gt;6. Listar el título, género, denominación de la editorial y año de edición de aquellos libros editados entre los años &lt;br&gt;1980 y 2015.&amp;nbsp;&lt;/b&gt;" style="text;whiteSpace=wrap;html=1;fillColor=#f5f5f5;fontColor=#333333;strokeColor=#666666;" vertex="1" parent="1">
          <mxGeometry x="17120" y="1350" width="1200" height="40" as="geometry" />
        </mxCell>
        <mxCell id="urwxPss4SStaSpPDpani-54" value="&lt;b&gt;8. Modificar el título del libro cuyo ISBN es 2152-2020 por el título &quot;El Código X&quot;.&amp;nbsp;&amp;nbsp;&lt;/b&gt;" style="text;whiteSpace=wrap;html=1;fillColor=#f5f5f5;fontColor=#333333;strokeColor=#666666;" vertex="1" parent="1">
          <mxGeometry x="17120" y="1710" width="1200" height="40" as="geometry" />
        </mxCell>
        <mxCell id="urwxPss4SStaSpPDpani-55" value="&lt;b&gt;7. Agregar un nuevo soclo con el nro_socio, DNI, Apellido, Nombre y Fecha de nacimiento que prefiera.&amp;nbsp;&amp;nbsp;&lt;/b&gt;" style="text;whiteSpace=wrap;html=1;fillColor=#f5f5f5;fontColor=#333333;strokeColor=#666666;" vertex="1" parent="1">
          <mxGeometry x="17120" y="1560" width="1200" height="40" as="geometry" />
        </mxCell>
        <mxCell id="urwxPss4SStaSpPDpani-56" value="&lt;div&gt;&lt;span style=&quot;color: light-dark(rgb(0, 0, 0), rgb(255, 255, 255)); background-color: transparent; font-size: 18px;&quot;&gt;edicion_1980&amp;nbsp;&lt;/span&gt;&lt;span style=&quot;background-color: initial; font-size: 20px;&quot;&gt;&amp;lt;&lt;/span&gt;&lt;font style=&quot;background-color: initial; font-size: 16px;&quot;&gt;==&lt;/font&gt;&lt;span style=&quot;color: light-dark(rgb(0, 0, 0), rgb(255, 255, 255)); background-color: transparent; font-size: 18px;&quot;&gt;&amp;nbsp;&lt;/span&gt;&lt;font style=&quot;color: light-dark(rgb(0, 0, 0), rgb(255, 255, 255)); background-color: initial;&quot; face=&quot;Comic Sans MS&quot;&gt;&lt;font style=&quot;font-size: 24px; background-color: initial;&quot;&gt;π&lt;/font&gt;&lt;font style=&quot;font-size: 18px; background-color: initial;&quot;&gt;&amp;nbsp;&lt;/font&gt;&lt;/font&gt;&lt;span style=&quot;color: rgb(51, 51, 51);&quot;&gt;ISBN&amp;nbsp;&lt;/span&gt;&lt;span style=&quot;color: light-dark(rgb(0, 0, 0), rgb(255, 255, 255)); background-color: transparent; font-size: 18px;&quot;&gt;(&amp;nbsp;&lt;/span&gt;&lt;font style=&quot;color: light-dark(rgb(0, 0, 0), rgb(255, 255, 255)); background-color: initial; font-size: 24px;&quot;&gt;σ&lt;/font&gt;&lt;span style=&quot;color: light-dark(rgb(0, 0, 0), rgb(255, 255, 255)); background-color: initial;&quot;&gt;&amp;nbsp;&lt;/span&gt;&lt;span style=&quot;background-color: initial; color: rgb(51, 51, 51);&quot;&gt;( Año_Edicion&amp;nbsp;&lt;span style=&quot;color: light-dark(rgb(0, 0, 0), rgb(255, 255, 255)); background-color: initial;&quot;&gt;&amp;nbsp;&amp;gt;=&lt;/span&gt;&lt;span style=&quot;background-color: initial; color: rgb(51, 51, 51);&quot;&gt;&amp;nbsp;&quot;1980-01-01&quot;&amp;nbsp;&lt;/span&gt;) and&amp;nbsp;&lt;/span&gt;&lt;span style=&quot;background-color: transparent; color: rgb(51, 51, 51);&quot;&gt;( Año_Edicion&amp;nbsp;&lt;/span&gt;&lt;span style=&quot;background-color: initial; color: light-dark(rgb(0, 0, 0), rgb(255, 255, 255));&quot;&gt;&amp;nbsp;&amp;lt;=&lt;/span&gt;&lt;span style=&quot;background-color: initial; color: rgb(51, 51, 51);&quot;&gt;&amp;nbsp;&quot;1980-12-31&quot;&amp;nbsp;&lt;/span&gt;&lt;span style=&quot;background-color: transparent; color: rgb(51, 51, 51);&quot;&gt;)&lt;/span&gt;&lt;span style=&quot;background-color: initial; color: rgb(51, 51, 51);&quot;&gt;&amp;nbsp;&lt;/span&gt;&lt;span style=&quot;background-color: transparent; color: light-dark(rgb(0, 0, 0), rgb(255, 255, 255)); font-size: 18px;&quot;&gt;( LIBRO-EDITORIAL&amp;nbsp;&lt;/span&gt;&lt;span style=&quot;background-color: transparent; color: light-dark(rgb(0, 0, 0), rgb(255, 255, 255)); font-size: 18px;&quot;&gt;)&lt;/span&gt;&lt;span style=&quot;background-color: transparent; color: light-dark(rgb(0, 0, 0), rgb(255, 255, 255)); font-size: 18px;&quot;&gt;&amp;nbsp;&lt;/span&gt;&lt;span style=&quot;background-color: transparent; color: light-dark(rgb(0, 0, 0), rgb(255, 255, 255)); font-size: 18px;&quot;&gt;)&lt;/span&gt;&lt;/div&gt;&lt;div&gt;&lt;div&gt;&lt;span style=&quot;color: light-dark(rgb(0, 0, 0), rgb(255, 255, 255)); background-color: transparent; font-size: 18px;&quot;&gt;edicion_2015&amp;nbsp;&lt;/span&gt;&lt;span style=&quot;background-color: initial; font-size: 20px;&quot;&gt;&amp;lt;&lt;/span&gt;&lt;font style=&quot;background-color: initial; font-size: 16px;&quot;&gt;==&lt;/font&gt;&lt;span style=&quot;color: light-dark(rgb(0, 0, 0), rgb(255, 255, 255)); background-color: transparent; font-size: 18px;&quot;&gt;&amp;nbsp;&lt;/span&gt;&lt;font style=&quot;color: light-dark(rgb(0, 0, 0), rgb(255, 255, 255)); background-color: initial;&quot; face=&quot;Comic Sans MS&quot;&gt;&lt;font style=&quot;font-size: 24px; background-color: initial;&quot;&gt;π&lt;/font&gt;&lt;font style=&quot;font-size: 18px; background-color: initial;&quot;&gt;&amp;nbsp;&lt;/font&gt;&lt;/font&gt;&lt;span style=&quot;color: rgb(51, 51, 51);&quot;&gt;ISBN&amp;nbsp;&lt;/span&gt;&lt;span style=&quot;color: light-dark(rgb(0, 0, 0), rgb(255, 255, 255)); background-color: transparent; font-size: 18px;&quot;&gt;(&amp;nbsp;&lt;/span&gt;&lt;font style=&quot;color: light-dark(rgb(0, 0, 0), rgb(255, 255, 255)); background-color: initial; font-size: 24px;&quot;&gt;σ&lt;/font&gt;&lt;span style=&quot;color: light-dark(rgb(0, 0, 0), rgb(255, 255, 255)); background-color: initial;&quot;&gt;&amp;nbsp;&lt;/span&gt;&lt;span style=&quot;background-color: initial; color: rgb(51, 51, 51);&quot;&gt;( Año_Edicion&amp;nbsp;&lt;span style=&quot;color: light-dark(rgb(0, 0, 0), rgb(255, 255, 255)); background-color: initial;&quot;&gt;&amp;nbsp;&amp;gt;=&lt;/span&gt;&lt;span style=&quot;background-color: initial; color: rgb(51, 51, 51);&quot;&gt;&amp;nbsp;&quot;2015-01-01&quot;&amp;nbsp;&lt;/span&gt;) and&amp;nbsp;&lt;/span&gt;&lt;span style=&quot;background-color: transparent; color: rgb(51, 51, 51);&quot;&gt;( Año_Edicion&amp;nbsp;&lt;/span&gt;&lt;span style=&quot;background-color: initial; color: light-dark(rgb(0, 0, 0), rgb(255, 255, 255));&quot;&gt;&amp;nbsp;&amp;lt;=&lt;/span&gt;&lt;span style=&quot;background-color: initial; color: rgb(51, 51, 51);&quot;&gt;&amp;nbsp;&quot;2015-12-31&quot;&amp;nbsp;&lt;/span&gt;&lt;span style=&quot;background-color: transparent; color: rgb(51, 51, 51);&quot;&gt;)&lt;/span&gt;&lt;span style=&quot;background-color: initial; color: rgb(51, 51, 51);&quot;&gt;&amp;nbsp;&lt;/span&gt;&lt;span style=&quot;background-color: transparent; color: light-dark(rgb(0, 0, 0), rgb(255, 255, 255)); font-size: 18px;&quot;&gt;( LIBRO-EDITORIAL&amp;nbsp;&lt;/span&gt;&lt;span style=&quot;background-color: transparent; color: light-dark(rgb(0, 0, 0), rgb(255, 255, 255)); font-size: 18px;&quot;&gt;)&lt;/span&gt;&lt;span style=&quot;background-color: transparent; color: light-dark(rgb(0, 0, 0), rgb(255, 255, 255)); font-size: 18px;&quot;&gt;&amp;nbsp;&lt;/span&gt;&lt;span style=&quot;background-color: transparent; color: light-dark(rgb(0, 0, 0), rgb(255, 255, 255)); font-size: 18px;&quot;&gt;)&lt;/span&gt;&lt;/div&gt;&lt;div&gt;&lt;div&gt;&lt;span style=&quot;background-color: initial; font-size: 18px;&quot;&gt;libro_editorial_1980_y_2015&amp;nbsp;&lt;/span&gt;&lt;span style=&quot;background-color: initial; font-size: 20px;&quot;&gt;&amp;lt;&lt;/span&gt;&lt;font style=&quot;background-color: initial; font-size: 16px;&quot;&gt;==&lt;/font&gt;&lt;span style=&quot;color: light-dark(rgb(0, 0, 0), rgb(255, 255, 255)); background-color: transparent; font-size: 18px;&quot;&gt;&amp;nbsp;&lt;/span&gt;&lt;font style=&quot;color: light-dark(rgb(0, 0, 0), rgb(255, 255, 255)); background-color: initial;&quot; face=&quot;Comic Sans MS&quot;&gt;&lt;font style=&quot;font-size: 24px; background-color: initial;&quot;&gt;π&lt;/font&gt;&lt;font style=&quot;font-size: 18px; background-color: initial;&quot;&gt;&amp;nbsp;&lt;/font&gt;&lt;/font&gt;&lt;span style=&quot;color: rgb(51, 51, 51);&quot;&gt;ISBN,&amp;nbsp;&lt;/span&gt;&lt;span style=&quot;color: rgb(51, 51, 51); background-color: transparent;&quot;&gt;Cod_Editorial, Año_Edicion&lt;/span&gt;&lt;span style=&quot;background-color: transparent; color: rgb(51, 51, 51);&quot;&gt;&amp;nbsp;&lt;/span&gt;&lt;span style=&quot;background-color: transparent; color: light-dark(rgb(0, 0, 0), rgb(255, 255, 255)); font-size: 18px;&quot;&gt;(&amp;nbsp;&lt;/span&gt;&lt;font style=&quot;background-color: initial; color: light-dark(rgb(0, 0, 0), rgb(255, 255, 255)); font-size: 24px;&quot;&gt;σ&lt;/font&gt;&lt;span style=&quot;background-color: initial; color: light-dark(rgb(0, 0, 0), rgb(255, 255, 255));&quot;&gt;&amp;nbsp;&lt;/span&gt;&lt;span style=&quot;background-color: initial; color: rgb(51, 51, 51);&quot;&gt;( Año_Edicion&amp;nbsp;&lt;span style=&quot;color: light-dark(rgb(0, 0, 0), rgb(255, 255, 255)); background-color: initial;&quot;&gt;&amp;nbsp;&amp;gt;=&lt;/span&gt;&lt;span style=&quot;background-color: initial; color: rgb(51, 51, 51);&quot;&gt;&amp;nbsp;&quot;1980-01-01&quot;&amp;nbsp;&lt;/span&gt;) and&amp;nbsp;&lt;/span&gt;&lt;span style=&quot;background-color: transparent; color: rgb(51, 51, 51);&quot;&gt;( Año_Edicion&amp;nbsp;&lt;/span&gt;&lt;span style=&quot;background-color: initial; color: light-dark(rgb(0, 0, 0), rgb(255, 255, 255));&quot;&gt;&amp;nbsp;&amp;lt;=&lt;/span&gt;&lt;span style=&quot;background-color: initial; color: rgb(51, 51, 51);&quot;&gt;&amp;nbsp;&quot;1980-12-31&quot;&amp;nbsp;&lt;/span&gt;&lt;span style=&quot;background-color: transparent; color: rgb(51, 51, 51);&quot;&gt;)&lt;/span&gt;&lt;span style=&quot;background-color: initial; color: rgb(51, 51, 51);&quot;&gt;&amp;nbsp;&lt;/span&gt;&lt;span style=&quot;background-color: transparent; color: light-dark(rgb(0, 0, 0), rgb(255, 255, 255)); font-size: 18px;&quot;&gt;( LIBRO-EDITORIAL&amp;nbsp;&lt;/span&gt;&lt;span style=&quot;background-color: transparent; color: light-dark(rgb(0, 0, 0), rgb(255, 255, 255)); font-size: 18px;&quot;&gt;)&lt;/span&gt;&lt;span style=&quot;background-color: transparent; color: light-dark(rgb(0, 0, 0), rgb(255, 255, 255)); font-size: 18px;&quot;&gt;&amp;nbsp;&lt;/span&gt;&lt;span style=&quot;background-color: transparent; color: light-dark(rgb(0, 0, 0), rgb(255, 255, 255)); font-size: 18px;&quot;&gt;)&lt;/span&gt;&lt;/div&gt;&lt;div&gt;&lt;/div&gt;&lt;/div&gt;&lt;div&gt;&lt;/div&gt;&lt;div&gt;&lt;font style=&quot;background-color: initial; color: light-dark(rgb(0, 0, 0), rgb(255, 255, 255));&quot; face=&quot;Comic Sans MS&quot;&gt;&lt;font style=&quot;font-size: 24px; background-color: initial;&quot;&gt;π&lt;/font&gt;&lt;font style=&quot;font-size: 18px; background-color: initial;&quot;&gt;&amp;nbsp;&lt;/font&gt;&lt;/font&gt;&lt;span style=&quot;background-color: transparent; color: rgb(51, 51, 51);&quot;&gt;Titulo, Nombre_Genero, Denominacion,&amp;nbsp;&lt;/span&gt;&lt;span style=&quot;background-color: transparent; color: rgb(51, 51, 51);&quot;&gt;Año_Edicion&lt;/span&gt;&lt;span style=&quot;background-color: transparent; color: rgb(51, 51, 51);&quot;&gt;&amp;nbsp;&lt;/span&gt;&lt;span style=&quot;background-color: transparent; color: rgb(51, 51, 51);&quot;&gt;&amp;nbsp;&lt;/span&gt;&lt;span style=&quot;background-color: transparent; color: light-dark(rgb(0, 0, 0), rgb(255, 255, 255)); font-size: 18px;&quot;&gt;( LIBRO |X| GENERO |X|&amp;nbsp;&lt;/span&gt;&lt;span style=&quot;font-size: 18px;&quot;&gt;libro_editorial_1980_y_2015&amp;nbsp;&lt;/span&gt;&lt;span style=&quot;background-color: transparent; color: light-dark(rgb(0, 0, 0), rgb(255, 255, 255)); font-size: 18px;&quot;&gt;&amp;nbsp;|X| EDITORIAL&lt;/span&gt;&lt;span style=&quot;background-color: transparent; color: light-dark(rgb(0, 0, 0), rgb(255, 255, 255)); font-size: 18px;&quot;&gt;&amp;nbsp;&lt;/span&gt;&lt;span style=&quot;background-color: transparent; color: light-dark(rgb(0, 0, 0), rgb(255, 255, 255)); font-size: 18px;&quot;&gt;)&lt;/span&gt;&lt;/div&gt;&lt;/div&gt;" style="text;whiteSpace=wrap;html=1;verticalAlign=middle;fontFamily=Comic Sans MS;" vertex="1" parent="1">
          <mxGeometry x="17120" y="1390" width="1160" height="140" as="geometry" />
        </mxCell>
        <mxCell id="urwxPss4SStaSpPDpani-57" value="" style="rounded=0;whiteSpace=wrap;html=1;fillColor=#FFCCE6;strokeColor=#000000;" vertex="1" parent="1">
          <mxGeometry x="17080" y="1160" width="40" height="680" as="geometry" />
        </mxCell>
        <mxCell id="urwxPss4SStaSpPDpani-58" value="" style="rounded=0;whiteSpace=wrap;html=1;fillColor=#FFCCE6;strokeColor=#000000;" vertex="1" parent="1">
          <mxGeometry x="18280" y="1160" width="40" height="680" as="geometry" />
        </mxCell>
        <mxCell id="urwxPss4SStaSpPDpani-59" value="&lt;font style=&quot;color: rgb(0, 0, 0); background-color: initial; font-size: 18px;&quot;&gt;SOCIO&amp;nbsp;&lt;/font&gt;&lt;font style=&quot;color: rgb(0, 0, 0); background-color: initial; font-size: 20px;&quot;&gt;&amp;lt;&lt;/font&gt;&lt;font style=&quot;color: rgb(0, 0, 0); background-color: initial; font-size: 16px;&quot;&gt;==&amp;nbsp;&lt;/font&gt;&lt;span style=&quot;color: rgb(0, 0, 0); background-color: initial;&quot;&gt;&lt;font style=&quot;font-size: 21px;&quot;&gt;&lt;span style=&quot;font-size: 18px;&quot;&gt;SOCIO&amp;nbsp;&lt;/span&gt;∪&lt;/font&gt;&lt;/span&gt;&lt;span style=&quot;color: rgb(0, 0, 0); background-color: initial; font-size: 16px;&quot;&gt;&amp;nbsp;{( 665723, 36958400, &quot;Nuñes&quot;, &quot;Daniel&quot;, &quot;2024-02-04&quot; )}&lt;/span&gt;" style="text;whiteSpace=wrap;html=1;verticalAlign=middle;fontFamily=Comic Sans MS;" vertex="1" parent="1">
          <mxGeometry x="17120" y="1600" width="1160" height="50" as="geometry" />
        </mxCell>
        <mxCell id="urwxPss4SStaSpPDpani-60" value="&lt;span&gt;&lt;font style=&quot;color: rgb(0, 0, 0); font-size: 18px;&quot;&gt;&lt;span style=&quot;font-size: 24px;&quot;&gt;δ&amp;nbsp;&lt;/span&gt;Titulo&amp;nbsp;&lt;font style=&quot;font-size: 12px;&quot;&gt;&lt;font style=&quot;font-size: 20px;&quot;&gt;&amp;lt;&lt;/font&gt;&lt;font style=&quot;font-size: 16px;&quot;&gt;=&lt;/font&gt;&lt;/font&gt;&lt;span style=&quot;font-size: 16px;&quot;&gt;= &quot;El Codigo X&quot;&amp;nbsp;&lt;/span&gt;&lt;/font&gt;&lt;font style=&quot;color: rgb(0, 0, 0); font-size: 18px;&quot;&gt;(&lt;/font&gt;&lt;font style=&quot;color: rgb(0, 0, 0); font-size: 24px;&quot;&gt;σ&amp;nbsp;&lt;/font&gt;&lt;font style=&quot;color: rgb(0, 0, 0); font-size: 18px;&quot;&gt;&lt;span style=&quot;font-size: 12px;&quot;&gt;ISBN = &quot;2152-2020&quot;&amp;nbsp;&lt;/span&gt;&lt;/font&gt;&lt;font style=&quot;color: rgb(0, 0, 0); font-size: 18px;&quot;&gt;( LIBRO&amp;nbsp;&lt;/font&gt;&lt;span style=&quot;color: rgb(0, 0, 0); font-size: 18px;&quot;&gt;)&lt;/span&gt;&lt;span style=&quot;color: rgb(0, 0, 0); font-size: 18px;&quot;&gt;)&lt;/span&gt;&lt;/span&gt;" style="text;whiteSpace=wrap;html=1;verticalAlign=middle;fontFamily=Comic Sans MS;" vertex="1" parent="1">
          <mxGeometry x="17120" y="1750" width="1160" height="60" as="geometry" />
        </mxCell>
        <mxCell id="urwxPss4SStaSpPDpani-61" value="" style="shape=image;verticalLabelPosition=bottom;labelBackgroundColor=default;verticalAlign=top;aspect=fixed;imageAspect=0;image=data:image/png,iVBORw0KGgoAAAANSUhEUgAAASIAAAB4CAYAAABW3P+TAAAAAXNSR0IArs4c6QAAAARnQU1BAACxjwv8YQUAAAAJcEhZcwAADsMAAA7DAcdvqGQAABJTSURBVHhe7Z1XqyxFF4a/33AMiDlgzjkHDJgR40EUQQyIihHFhDkj5pxFMWFOYEIEL8Rbf1DL0x9rWFN7dXfVTPd073Pei4fZe3dVdXWFt9ZaVT37fxs2bKiEEGJMJERCiNGREAkhRkdCJIQYHQmREGJ0JERCiNFZmRDts88+M0455ZROojJScsqK8qVE+VKifCmrqg/3ifKlRHlTonwpU2vnKF9KlC9lcx0/YGntnnwavqxVMagQ3XbbbdW///67EJdddllYpvHhhx+G+VJWVc7TTz8d5kvxgyDi119/DfN5SNNHOdBVTu5zTa2/pvZcfdWnq5ySdoboGmMHqBOsQpwGFaLoIXOZ2sDuKmdqA3vVE2S99dd6LadPIaKs6FoKohTdq08GFSIeFKvIsIfvIkeBSRPl9ayyHIjyevqqT5QvZT0+l8qJ8xtDlGPpmZuGWUImavzs7zEECwmRuVx8RteFEKKEIiFCPX3sAcWM0gkhNh/M24mu5ZItRNzIBMhEKMdUFEJsunhdWMZDyhKiVITkkgkhIPWSFtWGTiEikGU34Yb8HqUTQmye9CFGrULkRQgkQkKIiFSMSrWiVYi8SyYREkK0gRiZXiBKUZomWoWIghEjPqPrQgjh8cZLyfmjrGC1EELk4k/j5xoxEiIhRK8gPnY6O7oeISESQoyOhEgIMToSIiHE6EiIhBCjMydEBJl4h0yvcAghVsmcECFAixxGEkKIZZgTItv/lxAJIVbJnBDZuyIl+/9CCNGEva/a9d1lc0JEBgmREKIv/CsfbaesQyEis/+7EEIsQrEQkUhCJIToE/9VQm3f4CEhEkIMRrEQ5WYQQohclhKiNl9OCCFyyfW05oLVHGjUqWohRF8sJERCCNEnEiIhxOhIiIQQoyMhEkKMzsLBar3eIYToi2Ih0jkiIUTfSIiEEKPjhahNVyREQohBwRLqOp8oIRJCjI6ESAgxOhIiIcToSIh6ZOutt6622mqr8JoQy7Dttttu0mNLQtQTO++8c/XWW29VH330UbXXXnuFadYrp512WvXll19Wr7zySnXggQdOdkJsueWW1b777ltddNFF1V133VU99dRT1eeff17zxhtvVGeddVa1xRZbhHmnDMHeP//8s/rqq6/q9o/SHHbYYdUHH3xQffLJJ9XRRx9dbbPNNmG6qRIKEVtuPtFU2XPPPaurrrqqevfdd+sOuOWWW+qVI0o7NCeffHL1119/1e135ZVXhmnWIwzoZ555ZjY24O+//65efvnlerKfe+651fbbbx/mHRpEZdddd63OOOOM6oEHHqh++OGHuXqmMJlPPPHEsKypwnh+4YUX6vozvhhnUbo777xz7ln/+eef6p133qnuvffeauPGjXU7RfmmwkyIYD18DQirMQMP64PGThuf1dvSskIeddRRtbXC7wzcc845p/6PAo8++mjdSayUrJg333zzUqsIdbJ6nH/++WGaPuFZjjjiiOqaa66pP3NW+u22264eyAg2gxv4uS3/jjvuWLe1b+cUhOn111+vRalrIVi2T1h8Lr300urNN9+shSWqD/z+++8zawi+//77ufHR99hgXJ5wwgl1GXDeeefV1vHhhx8eps8FowBLiGf6+eef675K03DvJ554Yk0beHh2no22s2eeEnNCNFUYJJikDz744JrBZ6szZimYW0TnMJh82i4uv/zyNfe2svbYY4/WyX711VfXZXz33XeN5nMbu+22W3XTTTfVqxf3i9J4sGCtLbAGm1Y8rJULLrigXh1T4TYo58ILLwzzM2Eff/zxOi/umU1S+oL70v6+rF9++aUWt8hKWqZPaHsszfR+QN0+++yz+r6ISyQa/O3II4+s69Dn2KBeiM4333wT5sNSifLlcuaZZ8767aeffqoOPfTQNWmoww033FCnQXBxSXm+++67r3r//ffXzBl+5xpjOi1rCDBuuv5X4qSFiAZmlWES+YYEVrzbb7+9nsBRXsQAUUjzRdhqQQwhLYdB+9BDD9VpGOhNImGmMVZGqXvIc1p+7oNwROkM6vDII4/M0uOeUgYD66WXXqpdFLMC7Bm7QFii+9x99931PRDa9DogOBdffHEtSr48fmfi+7TL9AnWHAuOT4Mw8uylbkefY+PWW2+t00R5gXbYe++91+TNAfG0f3oK9Gk63ul3E2jEJRqflIOgpV7Ejz/+WJ1++ul1GWmePrH7tcWeJylENCYBOgZA2smsPFgNXZOdMu644466DCYZK8Snn35al4GJS8fssMMOYV4PEw0TnXxffPFFuIpwLzONsWrS6134OABQVjSgDG+u81yW1ruHHkT7/vvvr1fT1FpALL799tvqnnvumfs7MOgZ/JSBtdlm0jOYDznkkOr555+f9Rn3Pfvss2dplu0TyrLVnedpa6M2lq0H8LyIoD0r7cREo2zawQszi8wik91bvXaPVIi8QOdY44gibWeWJZ8I2VBiVPyu2ZTA1PUCRGM9++yz1bHHHlu7ClGeHBh0lNc1qTwI0auvvlrn++OPP6rjjjtuTRpWZBt4+ODp9Rz8oOuqH24C6RBGv9r6gDlgSSJOi05YL0RYWUywKJ2HAc1E/u2338I6ppT0ia9Pk4W2KKVjg2f0/ZXulB5//PGzNsBt3H333eeud0Ed0thcVDcvRMyTU089de56E8SazJ2knsccc0yYblnWtRCh0FZ5YLVedDJ5bLCxCxTFESKwgJhMVhcmdpoGq4LYSJNQ5cDzPfbYY/U9mmIB4AdoutIiiAxWrmGZMEh93lK8CEercRN+cjQFWI2SPlmFEOXUw/dB03ENH+TvaoMU+pRNCPIiElis/Eybpn1K2ocffnih+9gzQzSu+2BdCxEdSwfbA2AdEYBb1NcGJrq5TyUBxNTKiCYAVhDXclfTJthts/s07byZtdi0itng4jO9tghWngkR7hEuF65k1B+4mddff/3M9Mf9aYrhlPbJUEJUWg/rA8aFdz1TKIsySy0OAu52FOHGG2+sY5T8HAkR0BZcNyEyd5u253xR6nbxvIQ36Efyca+DDz54Lk1frGshAgb5a6+9NnsIoPPZJl7ERfOrdMk5HyaVr8O11147d51OxufmGp9pp5fgg6hRWf4ZCFYzoPx1aBMiyqNdEU5/2A9wLWkXXybpbbUlzX777Te7PyA2xKqsDH42AQImw0knnTRXB09pn+QIEfXHDcLVRTAQ9C6XsqQeWEvPPfdcnZbPNuuJRYzJ/vXXX1cHHHBAmCYFK9TihQgJFrkJDXWMhIgxyXUTIhsDwJzBBbM+wrr3cSfqx47pMuO2jYWEiAj9lL6hEbFhIKfRfqBxL7nkkmwXywYx5fizRm34QLWRTnAsIHOHlj0/5CdEZF2x+rIKQxQL8MKB0DAZ7UwL7m3XgT/ahpXSyvP1oQ+oj63ybVAO9+/aHi7tEy9EnPJmJwtxxIIgcEwdvRAaiGzbzlpJPfxikRMPRBhzd1FJS+CcshEL+o+/dwmRCQ8LARPfYohd0F5dwe1lKRYiHtoyWANMBSYYqxoB63SgMcjSbeIIYi7EXkr8aMxpCzga6WAw163UP2+CXTfuk8abukQKfEynDXOtmLx2AI+jCQxM35b+nvbcTFpEwJfHBGZhYAVnIvGKQc4KW9onXoi6YCJ//PHHdX04Td1Wn5J6IFQ8LzHBnHFXAtYYZYMdyeDvuUJE29BGCJ8tSB6OczBfuMa2/TIbP7lsUkLkYQLSSRbxBwYdZ1naBhuTmsltnRWlSTG3jHgVIsjPfouU+5mFgOWEEKRllOJjUtzf/m7WUPp3T9tEpb0QG+qeOwC9EHmrgoGO68iE4Vo6cXIp7ZO252OBQqAR8pJnhJJ62BGJvhYew8eF8Eq8pW+uV5cQ+U0OrKvrrrtubuFGlL3rvQq8ELXpyroTIoOOYmJZQ3tTNsIGUO6BQ++WYeriCpkQmAvGC5Z2nqdJHEphsmNZUCaf/E5dzArhftw3ykunW30AgVg0pgZeiNJJSnlXXHHFLODJvThgmusqQ2mfeCHivkxcArk8X8l9U0rqYaLF87KFH6UphcUVa5Q6pLtwiLuP07EgpdawCVEqjuTF8uHgItfhySefrHbaaae5/EODJbRJf0MjDU38w4JvbTsemL2kSWM8TZhbZp1LAJTzIJRBkBJx4NQxv/e56+CtLAY7z2e7NPyNg3hNlgf1pL64DbhH1LEpbQ4M+Pfee6++b5O1gPWBtUQa4HWQXMuwtE+8EOXmyaGkHr5NEI9ddtklTJeLjwsBYo6rzMJGfTg9btcMxMqsU756hngcf2+y0mg3705T76743aqZnBBxbyZ67lc2MDB4+556t61oFnvJPfls6ek0zoRQF9sdwwqjjiaAXSehS/GxKQadTT52oQ466KAwD9jK3nQCvBRvEVkgNErHQKftSQe0Wc5Ri9I+GUqISuvBKzi2MLz44osLWxiMKVxaK6sL0vGNB00WURpX9KTuNO3Yd4xrGSYlRH7g02C4Xmmje2hczllY4zZZC5jt9lUWftsX8WBlSf1un94PTu+eGdwbi8XnXxbub1vEnjZrCOw8E6sosQImLoFaC0izyrL6gr1ZjvvHQOYaeXz5vh3aBjmQltXc+gIrqW1HprRPYAghWqQeqRWD64O7XrIY0c7ENW0x8+B2srjSnowtO+PUdNDV72S27dyaO233xJInJhmlXTWTEiI60twdD9F+BqAnfaETczm1Amh44imIlTU+n1gWNmGi/H7AY2VYeV4oDYvjWJq+MFExctw/211ZFNpl//33nyvTVlvwbRGRTq403gGL9gn4fkE8EBFfdgnL1AMYq2kwGAHhfBcxRSwXvqkAQabOWIkcLiQv7UQauy9jiLM8tG80lnxcKjpe4Pvdi2kTiI8FxvkkUB6lWyWTc82ILxCc8x3cBW4Bg9SXwxF56+gc/GDzlk86+WgbK5eB0fWm/KKkgeemHRMPVo2lb4O2pWyzhlhRWUkJ+qYWlw1y2iNn9SS/dzd8+y3TJ+CFKKc9mli2Hh6sPjYEUvFK4X4EtxEw+snS58RrCFBbOZHQ0MZ2PedsE1CmtUGOeA3NTIj8NltTLGCV4JJxuA6RSU+D2nkIvpUv2hHyAbwUm4SUy4DAdUnftLbJF7kjTDRWpbfffrte1dJ79wVup8VdGLRdJ37BRJJ62/PyO3EM6opFVTp57eVOji/kBqFpE1wAvoPGxGvZPgEsICujy01too96pFAPYmLk4QiBLaJ88jvCzBe6kdYvZNwnXUAjLJgOkUvKl69h2XCv6L23COpM3xLgzhWvIZkJEbDNNqY11CeYwcRBsK4QNAYD5zHaYk6GneWhY4dwu3JB8LBamHS58QfEgrTEEqj7IpN1KJbpE4O0CMQyblkf9VgUFjmEiM/cZ/DvXrbtDK9n5oRI/B9W9KZApRDLgPjkWFkpiBEuWK5VOiVYTLGO2zwtCZEQYjB8yCf7pVchhOgTCZEQYnQkREKI0ZEQCSFGR0IkhBidhYTIttn834QQYlGKhYiDjJZhUznUKIQYFwmREGJ0vBC16YqESAgxKIhRmzUEEiIhxOhIiIQQoyMhEkKMjoRICDE6EiIhxKDwf9q6zidKiIQQg1F8jih3v18IIXLJNXBCIera8xdCiByWEqKufw8rhBA5FAsRSIiEEH2Cd2W6grETpQEJkRBiMNAS05XoujEnRJhObLX5vwkhxKKgJ4hQ9va9EEL0DQKEEHUZOBIiIcRg8GWLEiIhxKgQoM6JOUuIhBCjIyESQoyOhEgIMTqNQtR2+EgIIfqkUYjsXwvpvTMhxNA0CpHt//Mp60gIMSSNQuTfEdFpayFEDugGxkvbC64RrcFqO54Nev9MCNGGf9O+1HhpFSJcMnPRJEZCiCa8CPVuEYHESAjRhg/jQKkIQacQQSpG2kkTQqAL9i7ZMiIEWUIEXowkREJs3nhXDBZxxzzZQgSIEUTXhBCbD94S6mNXvUiIckCoUMZl1FEIMW2Y5whQX/O8dyHyW/5msqGewDUg4G2WFT/b35vIcQVzyslptFXWJ8e6XI/t09dz9VWfqT3X1PrLsHnKnCVfVN5Q9C5EPIAXoiZIR4dE11JomOheBh0S5UvpKqev+ui5VE4bUyuniRzh7YvehQh4ABoBUqU1mGSkS/8eQRnRfYzccqhPlN9Yr/XpWr1o61XWR+XE+Y2plWOQFhjfXWX3zSBCJIQQJUiIhBCjIyESQoyOhEgIMToSIiHE6EiIhBCjIyESQoyOhEgIMToSIiHEyGyo/gPlB714ZutNtQAAAABJRU5ErkJggg==;" vertex="1" parent="1">
          <mxGeometry x="18080" y="1170" width="193.33" height="80" as="geometry" />
        </mxCell>
      </root>
    </mxGraphModel>
  </diagram>
</mxfile>
